<svg width="256" height="256" viewBox="0 0 256 256" fill="none" xmlns="http://www.w3.org/2000/svg">
<g filter="url(#filter0_d_143_22)">
<path d="M180.836 55H76.1581C56.9116 55 44.7127 75.7607 54.3956 92.5439L118.999 204.517C123.215 211.828 133.779 211.828 137.995 204.517L202.612 92.5439C212.281 75.7875 200.082 55 180.849 55H180.836ZM118.946 170.938L104.877 143.709L70.9285 82.9932C68.689 79.1071 71.4552 74.1272 76.145 74.1272H118.933V170.951L118.946 170.938ZM186.039 82.98L152.104 143.722L138.035 170.938V74.1141H180.823C185.513 74.1141 188.279 79.0939 186.039 82.98Z" fill="white"/>
</g>
<defs>
<filter id="filter0_d_143_22" x="24" y="28" width="209" height="209" filterUnits="userSpaceOnUse" color-interpolation-filters="sRGB">
<feFlood flood-opacity="0" result="BackgroundImageFix"/>
<feColorMatrix in="SourceAlpha" type="matrix" values="0 0 0 0 0 0 0 0 0 0 0 0 0 0 0 0 0 0 127 0" result="hardAlpha"/>
<feOffset/>
<feGaussianBlur stdDeviation="13.5"/>
<feComposite in2="hardAlpha" operator="out"/>
<feColorMatrix type="matrix" values="0 0 0 0 1 0 0 0 0 1 0 0 0 0 1 0 0 0 0.4 0"/>
<feBlend mode="normal" in2="BackgroundImageFix" result="effect1_dropShadow_143_22"/>
<feBlend mode="normal" in="SourceGraphic" in2="effect1_dropShadow_143_22" result="shape"/>
</filter>
</defs>
</svg>
